<?xml version="1.0" encoding="UTF-8" standalone="no"?>
<!-- This is a Stata 18.0 generated SVG file (http://www.stata.com) -->

<svg version="1.1" width="5.500in" height="4.000in" viewBox="0 0 3960 2880" xmlns="http://www.w3.org/2000/svg" xmlns:xlink="http://www.w3.org/1999/xlink">
	<desc>Stata Graph - Graph</desc>
	<rect x="0" y="0" width="3960" height="2880" style="fill:#FFFFFF;stroke:none"/>
	<rect x="0.00" y="0.00" width="3959.88" height="2880.00" style="fill:#FFFFFF"/>
	<rect x="2.88" y="2.88" width="3954.12" height="2874.24" style="fill:none;stroke:#FFFFFF;stroke-width:5.76"/>
	<rect x="393.68" y="278.23" width="3462.46" height="2208.07" style="fill:none;stroke:#000000;stroke-width:5.76"/>
	<line x1="390.80" y1="1532.57" x2="3859.02" y2="1532.57" style="stroke:#00FF00;stroke-width:8.64"/>
	<circle cx="454.04" cy="1532.69" r="26.35" style="fill:#006000"/>
	<circle cx="454.04" cy="1532.69" r="22.03" style="fill:none;stroke:#006000;stroke-width:8.64"/>
	<circle cx="1289.47" cy="1404.61" r="26.35" style="fill:#006000"/>
	<circle cx="1289.47" cy="1404.61" r="22.03" style="fill:none;stroke:#006000;stroke-width:8.64"/>
	<circle cx="2124.91" cy="1260.68" r="26.35" style="fill:#006000"/>
	<circle cx="2124.91" cy="1260.68" r="22.03" style="fill:none;stroke:#006000;stroke-width:8.64"/>
	<circle cx="2960.22" cy="1063.05" r="26.35" style="fill:#006000"/>
	<circle cx="2960.22" cy="1063.05" r="22.03" style="fill:none;stroke:#006000;stroke-width:8.64"/>
	<circle cx="3795.66" cy="667.16" r="26.35" style="fill:#006000"/>
	<circle cx="3795.66" cy="667.16" r="22.03" style="fill:none;stroke:#006000;stroke-width:8.64"/>
	<line x1="1289.47" y1="1482.70" x2="1289.47" y2="1326.39" style="stroke:#FF4500;stroke-width:8.64"/>
	<line x1="1267.45" y1="1326.39" x2="1311.50" y2="1326.39" stroke-linecap="round" style="stroke:#FF4500;stroke-width:8.64"/>
	<line x1="1267.45" y1="1482.70" x2="1311.50" y2="1482.70" stroke-linecap="round" style="stroke:#FF4500;stroke-width:8.64"/>
	<line x1="2124.91" y1="1333.08" x2="2124.91" y2="1188.16" style="stroke:#FF4500;stroke-width:8.64"/>
	<line x1="2102.88" y1="1188.16" x2="2146.94" y2="1188.16" stroke-linecap="round" style="stroke:#FF4500;stroke-width:8.64"/>
	<line x1="2102.88" y1="1333.08" x2="2146.94" y2="1333.08" stroke-linecap="round" style="stroke:#FF4500;stroke-width:8.64"/>
	<line x1="2960.35" y1="1137.30" x2="2960.35" y2="988.67" style="stroke:#FF4500;stroke-width:8.64"/>
	<line x1="2938.32" y1="988.67" x2="2982.38" y2="988.67" stroke-linecap="round" style="stroke:#FF4500;stroke-width:8.64"/>
	<line x1="2938.32" y1="1137.30" x2="2982.38" y2="1137.30" stroke-linecap="round" style="stroke:#FF4500;stroke-width:8.64"/>
	<line x1="3795.66" y1="752.18" x2="3795.66" y2="582.01" style="stroke:#FF4500;stroke-width:8.64"/>
	<line x1="3773.63" y1="582.01" x2="3817.69" y2="582.01" stroke-linecap="round" style="stroke:#FF4500;stroke-width:8.64"/>
	<line x1="3773.63" y1="752.18" x2="3817.69" y2="752.18" stroke-linecap="round" style="stroke:#FF4500;stroke-width:8.64"/>
	<line x1="390.80" y1="2489.19" x2="390.80" y2="275.35" style="stroke:#000000;stroke-width:5.76"/>
	<line x1="390.80" y1="2425.82" x2="350.83" y2="2425.82" style="stroke:#000000;stroke-width:5.76"/>
	<text x="300.72" y="2425.82" style="font-family:'Helvetica';font-size:99.99px;fill:#000000" transform="rotate(-90 300.72,2425.82)" text-anchor="middle">0.125</text>
	<line x1="390.80" y1="2129.56" x2="350.83" y2="2129.56" style="stroke:#000000;stroke-width:5.76"/>
	<text x="300.72" y="2129.56" style="font-family:'Helvetica';font-size:99.99px;fill:#000000" transform="rotate(-90 300.72,2129.56)" text-anchor="middle">0.25</text>
	<line x1="390.80" y1="1828.96" x2="350.83" y2="1828.96" style="stroke:#000000;stroke-width:5.76"/>
	<text x="300.72" y="1828.96" style="font-family:'Helvetica';font-size:99.99px;fill:#000000" transform="rotate(-90 300.72,1828.96)" text-anchor="middle">0.5</text>
	<line x1="390.80" y1="1532.57" x2="350.83" y2="1532.57" style="stroke:#000000;stroke-width:5.76"/>
	<text x="300.72" y="1532.57" style="font-family:'Helvetica';font-size:99.99px;fill:#000000" transform="rotate(-90 300.72,1532.57)" text-anchor="middle">1</text>
	<line x1="390.80" y1="1236.30" x2="350.83" y2="1236.30" style="stroke:#000000;stroke-width:5.76"/>
	<text x="300.72" y="1236.30" style="font-family:'Helvetica';font-size:99.99px;fill:#000000" transform="rotate(-90 300.72,1236.30)" text-anchor="middle">2</text>
	<line x1="390.80" y1="935.70" x2="350.83" y2="935.70" style="stroke:#000000;stroke-width:5.76"/>
	<text x="300.72" y="935.70" style="font-family:'Helvetica';font-size:99.99px;fill:#000000" transform="rotate(-90 300.72,935.70)" text-anchor="middle">4</text>
	<line x1="390.80" y1="639.31" x2="350.83" y2="639.31" style="stroke:#000000;stroke-width:5.76"/>
	<text x="300.72" y="639.31" style="font-family:'Helvetica';font-size:99.99px;fill:#000000" transform="rotate(-90 300.72,639.31)" text-anchor="middle">8</text>
	<line x1="390.80" y1="338.71" x2="350.83" y2="338.71" style="stroke:#000000;stroke-width:5.76"/>
	<text x="300.72" y="338.71" style="font-family:'Helvetica';font-size:99.99px;fill:#000000" transform="rotate(-90 300.72,338.71)" text-anchor="middle">16</text>
	<text x="190.71" y="1382.33" style="font-family:'Helvetica';font-size:99.99px;fill:#000000" transform="rotate(-90 190.71,1382.33)" text-anchor="middle"> </text>
	<line x1="390.80" y1="2489.19" x2="3859.02" y2="2489.19" style="stroke:#000000;stroke-width:5.76"/>
	<line x1="454.16" y1="2489.19" x2="454.16" y2="2529.16" style="stroke:#000000;stroke-width:5.76"/>
	<text x="454.16" y="2619.14" style="font-family:'Helvetica';font-size:99.99px;fill:#000000" text-anchor="middle">Excellent</text>
	<line x1="1289.47" y1="2489.19" x2="1289.47" y2="2529.16" style="stroke:#000000;stroke-width:5.76"/>
	<text x="1289.47" y="2619.14" style="font-family:'Helvetica';font-size:99.99px;fill:#000000" text-anchor="middle">Very Good</text>
	<line x1="2124.91" y1="2489.19" x2="2124.91" y2="2529.16" style="stroke:#000000;stroke-width:5.76"/>
	<text x="2124.91" y="2619.14" style="font-family:'Helvetica';font-size:99.99px;fill:#000000" text-anchor="middle">Good</text>
	<line x1="2960.35" y1="2489.19" x2="2960.35" y2="2529.16" style="stroke:#000000;stroke-width:5.76"/>
	<text x="2960.35" y="2619.14" style="font-family:'Helvetica';font-size:99.99px;fill:#000000" text-anchor="middle">Fair</text>
	<line x1="3795.66" y1="2489.19" x2="3795.66" y2="2529.16" style="stroke:#000000;stroke-width:5.76"/>
	<text x="3795.66" y="2619.14" style="font-family:'Helvetica';font-size:99.99px;fill:#000000" text-anchor="middle">Poor</text>
	<text x="2124.91" y="2729.16" style="font-family:'Helvetica';font-size:99.99px;fill:#000000" text-anchor="middle">Self-Reported Health</text>
	<text x="2124.91" y="215.98" style="font-family:'Helvetica';font-size:139.96px;fill:#000000" text-anchor="middle"> </text>
</svg>
