<?xml version="1.0" encoding="UTF-8" standalone="no"?>
<!-- This is a Stata 18.0 generated SVG file (http://www.stata.com) -->

<svg version="1.1" width="5.500in" height="4.000in" viewBox="0 0 3960 2880" xmlns="http://www.w3.org/2000/svg" xmlns:xlink="http://www.w3.org/1999/xlink">
	<desc>Stata Graph - Graph</desc>
	<rect x="0" y="0" width="3960" height="2880" style="fill:#FFFFFF;stroke:none"/>
	<rect x="0.00" y="0.00" width="3959.88" height="2880.00" style="fill:#FFFFFF"/>
	<rect x="2.88" y="2.88" width="3954.12" height="2874.24" style="fill:none;stroke:#FFFFFF;stroke-width:5.76"/>
	<rect x="393.68" y="278.23" width="3462.46" height="2101.52" style="fill:none;stroke:#000000;stroke-width:5.76"/>
	<line x1="390.80" y1="1471.68" x2="3859.02" y2="1471.68" style="stroke:#00FF00;stroke-width:8.64"/>
	<circle cx="454.04" cy="1471.68" r="26.35" style="fill:#006000"/>
	<circle cx="454.04" cy="1471.68" r="22.03" style="fill:none;stroke:#006000;stroke-width:8.64"/>
	<circle cx="1289.47" cy="1420.32" r="26.35" style="fill:#006000"/>
	<circle cx="1289.47" cy="1420.32" r="22.03" style="fill:none;stroke:#006000;stroke-width:8.64"/>
	<circle cx="2124.91" cy="1305.73" r="26.35" style="fill:#006000"/>
	<circle cx="2124.91" cy="1305.73" r="22.03" style="fill:none;stroke:#006000;stroke-width:8.64"/>
	<circle cx="2960.22" cy="1234.94" r="26.35" style="fill:#006000"/>
	<circle cx="2960.22" cy="1234.94" r="22.03" style="fill:none;stroke:#006000;stroke-width:8.64"/>
	<circle cx="3795.66" cy="987.56" r="26.35" style="fill:#006000"/>
	<circle cx="3795.66" cy="987.56" r="22.03" style="fill:none;stroke:#006000;stroke-width:8.64"/>
	<line x1="1289.47" y1="1494.82" x2="1289.47" y2="1345.70" style="stroke:#FF4500;stroke-width:8.64"/>
	<line x1="1267.45" y1="1345.70" x2="1311.50" y2="1345.70" stroke-linecap="round" style="stroke:#FF4500;stroke-width:8.64"/>
	<line x1="1267.45" y1="1494.82" x2="1311.50" y2="1494.82" stroke-linecap="round" style="stroke:#FF4500;stroke-width:8.64"/>
	<line x1="2124.91" y1="1375.40" x2="2124.91" y2="1235.93" style="stroke:#FF4500;stroke-width:8.64"/>
	<line x1="2102.88" y1="1235.93" x2="2146.94" y2="1235.93" stroke-linecap="round" style="stroke:#FF4500;stroke-width:8.64"/>
	<line x1="2102.88" y1="1375.40" x2="2146.94" y2="1375.40" stroke-linecap="round" style="stroke:#FF4500;stroke-width:8.64"/>
	<line x1="2960.35" y1="1308.20" x2="2960.35" y2="1161.68" style="stroke:#FF4500;stroke-width:8.64"/>
	<line x1="2938.32" y1="1161.68" x2="2982.38" y2="1161.68" stroke-linecap="round" style="stroke:#FF4500;stroke-width:8.64"/>
	<line x1="2938.32" y1="1308.20" x2="2982.38" y2="1308.20" stroke-linecap="round" style="stroke:#FF4500;stroke-width:8.64"/>
	<line x1="3795.66" y1="1073.07" x2="3795.66" y2="902.04" style="stroke:#FF4500;stroke-width:8.64"/>
	<line x1="3773.63" y1="902.04" x2="3817.69" y2="902.04" stroke-linecap="round" style="stroke:#FF4500;stroke-width:8.64"/>
	<line x1="3773.63" y1="1073.07" x2="3817.69" y2="1073.07" stroke-linecap="round" style="stroke:#FF4500;stroke-width:8.64"/>
	<line x1="390.80" y1="2382.63" x2="390.80" y2="275.35" style="stroke:#000000;stroke-width:5.76"/>
	<line x1="390.80" y1="2319.27" x2="350.83" y2="2319.27" style="stroke:#000000;stroke-width:5.76"/>
	<text x="300.72" y="2319.27" style="font-family:'Helvetica';font-size:99.99px;fill:#000000" transform="rotate(-90 300.72,2319.27)" text-anchor="middle">0.125</text>
	<line x1="390.80" y1="2038.10" x2="350.83" y2="2038.10" style="stroke:#000000;stroke-width:5.76"/>
	<text x="300.72" y="2038.10" style="font-family:'Helvetica';font-size:99.99px;fill:#000000" transform="rotate(-90 300.72,2038.10)" text-anchor="middle">0.25</text>
	<line x1="390.80" y1="1752.85" x2="350.83" y2="1752.85" style="stroke:#000000;stroke-width:5.76"/>
	<text x="300.72" y="1752.85" style="font-family:'Helvetica';font-size:99.99px;fill:#000000" transform="rotate(-90 300.72,1752.85)" text-anchor="middle">0.5</text>
	<line x1="390.80" y1="1471.68" x2="350.83" y2="1471.68" style="stroke:#000000;stroke-width:5.76"/>
	<text x="300.72" y="1471.68" style="font-family:'Helvetica';font-size:99.99px;fill:#000000" transform="rotate(-90 300.72,1471.68)" text-anchor="middle">1</text>
	<line x1="390.80" y1="1190.51" x2="350.83" y2="1190.51" style="stroke:#000000;stroke-width:5.76"/>
	<text x="300.72" y="1190.51" style="font-family:'Helvetica';font-size:99.99px;fill:#000000" transform="rotate(-90 300.72,1190.51)" text-anchor="middle">2</text>
	<line x1="390.80" y1="905.14" x2="350.83" y2="905.14" style="stroke:#000000;stroke-width:5.76"/>
	<text x="300.72" y="905.14" style="font-family:'Helvetica';font-size:99.99px;fill:#000000" transform="rotate(-90 300.72,905.14)" text-anchor="middle">4</text>
	<line x1="390.80" y1="623.97" x2="350.83" y2="623.97" style="stroke:#000000;stroke-width:5.76"/>
	<text x="300.72" y="623.97" style="font-family:'Helvetica';font-size:99.99px;fill:#000000" transform="rotate(-90 300.72,623.97)" text-anchor="middle">8</text>
	<line x1="390.80" y1="338.71" x2="350.83" y2="338.71" style="stroke:#000000;stroke-width:5.76"/>
	<text x="300.72" y="338.71" style="font-family:'Helvetica';font-size:99.99px;fill:#000000" transform="rotate(-90 300.72,338.71)" text-anchor="middle">16</text>
	<text x="190.71" y="1328.99" style="font-family:'Helvetica';font-size:99.99px;fill:#000000" transform="rotate(-90 190.71,1328.99)" text-anchor="middle"> </text>
	<line x1="390.80" y1="2382.63" x2="3859.02" y2="2382.63" style="stroke:#000000;stroke-width:5.76"/>
	<line x1="454.16" y1="2382.63" x2="454.16" y2="2422.61" style="stroke:#000000;stroke-width:5.76"/>
	<text x="454.16" y="2512.59" style="font-family:'Helvetica';font-size:99.99px;fill:#000000" text-anchor="middle">Excellent</text>
	<line x1="1289.47" y1="2382.63" x2="1289.47" y2="2422.61" style="stroke:#000000;stroke-width:5.76"/>
	<text x="1289.47" y="2512.59" style="font-family:'Helvetica';font-size:99.99px;fill:#000000" text-anchor="middle">Very Good</text>
	<line x1="2124.91" y1="2382.63" x2="2124.91" y2="2422.61" style="stroke:#000000;stroke-width:5.76"/>
	<text x="2124.91" y="2512.59" style="font-family:'Helvetica';font-size:99.99px;fill:#000000" text-anchor="middle">Good</text>
	<line x1="2960.35" y1="2382.63" x2="2960.35" y2="2422.61" style="stroke:#000000;stroke-width:5.76"/>
	<text x="2960.35" y="2512.59" style="font-family:'Helvetica';font-size:99.99px;fill:#000000" text-anchor="middle">Fair</text>
	<line x1="3795.66" y1="2382.63" x2="3795.66" y2="2422.61" style="stroke:#000000;stroke-width:5.76"/>
	<text x="3795.66" y="2512.59" style="font-family:'Helvetica';font-size:99.99px;fill:#000000" text-anchor="middle">Poor</text>
	<text x="2124.91" y="2622.60" style="font-family:'Helvetica';font-size:99.99px;fill:#000000" text-anchor="middle">Self-Reported Health</text>
	<text x="408.00" y="2740.27" style="font-family:'Helvetica';font-size:72.02px;fill:#000000">Note:Adjusted for age, sex, ethnicity/race and times of receiving health care over past year</text>
	<text x="2124.91" y="215.98" style="font-family:'Helvetica';font-size:139.96px;fill:#000000" text-anchor="middle"> </text>
</svg>
