<?xml version="1.0" encoding="UTF-8" standalone="no"?>
<!-- This is a Stata 18.0 generated SVG file (http://www.stata.com) -->

<svg version="1.1" width="5.500in" height="4.000in" viewBox="0 0 3960 2880" xmlns="http://www.w3.org/2000/svg" xmlns:xlink="http://www.w3.org/1999/xlink">
	<desc>Stata Graph - Graph</desc>
	<rect x="0" y="0" width="3960" height="2880" style="fill:#FFFFFF;stroke:none"/>
	<rect x="0.00" y="0.00" width="3959.88" height="2880.00" style="fill:#FFFFFF"/>
	<rect x="2.88" y="2.88" width="3954.12" height="2874.24" style="fill:none;stroke:#FFFFFF;stroke-width:5.76"/>
	<rect x="63.36" y="237.98" width="1916.64" height="2578.66" style="fill:#FFFFFF"/>
	<rect x="65.52" y="240.14" width="1912.32" height="2574.34" style="fill:none;stroke:#FFFFFF;stroke-width:4.32"/>
	<rect x="358.56" y="446.56" width="1543.67" height="2074.87" style="fill:none;stroke:#000000;stroke-width:4.32"/>
	<line x1="356.40" y1="1626.87" x2="1904.39" y2="1626.87" style="stroke:#00FF00;stroke-width:6.48"/>
	<circle cx="403.92" cy="1626.99" r="19.70" style="fill:#006000"/>
	<circle cx="403.92" cy="1626.99" r="16.46" style="fill:none;stroke:#006000;stroke-width:6.48"/>
	<circle cx="767.13" cy="1505.22" r="19.70" style="fill:#006000"/>
	<circle cx="767.13" cy="1505.22" r="16.46" style="fill:none;stroke:#006000;stroke-width:6.48"/>
	<circle cx="1130.33" cy="1368.35" r="19.70" style="fill:#006000"/>
	<circle cx="1130.33" cy="1368.35" r="16.46" style="fill:none;stroke:#006000;stroke-width:6.48"/>
	<circle cx="1493.54" cy="1180.49" r="19.70" style="fill:#006000"/>
	<circle cx="1493.54" cy="1180.49" r="16.46" style="fill:none;stroke:#006000;stroke-width:6.48"/>
	<circle cx="1856.75" cy="804.15" r="19.70" style="fill:#006000"/>
	<circle cx="1856.75" cy="804.15" r="16.46" style="fill:none;stroke:#006000;stroke-width:6.48"/>
	<line x1="767.13" y1="1579.47" x2="767.13" y2="1430.84" style="stroke:#FF4500;stroke-width:6.48"/>
	<line x1="750.67" y1="1430.84" x2="783.71" y2="1430.84" stroke-linecap="round" style="stroke:#FF4500;stroke-width:6.48"/>
	<line x1="750.67" y1="1579.47" x2="783.71" y2="1579.47" stroke-linecap="round" style="stroke:#FF4500;stroke-width:6.48"/>
	<line x1="1130.33" y1="1437.28" x2="1130.33" y2="1299.42" style="stroke:#FF4500;stroke-width:6.48"/>
	<line x1="1113.87" y1="1299.42" x2="1146.92" y2="1299.42" stroke-linecap="round" style="stroke:#FF4500;stroke-width:6.48"/>
	<line x1="1113.87" y1="1437.28" x2="1146.92" y2="1437.28" stroke-linecap="round" style="stroke:#FF4500;stroke-width:6.48"/>
	<line x1="1493.66" y1="1251.03" x2="1493.66" y2="1109.82" style="stroke:#FF4500;stroke-width:6.48"/>
	<line x1="1477.20" y1="1109.82" x2="1510.25" y2="1109.82" stroke-linecap="round" style="stroke:#FF4500;stroke-width:6.48"/>
	<line x1="1477.20" y1="1251.03" x2="1510.25" y2="1251.03" stroke-linecap="round" style="stroke:#FF4500;stroke-width:6.48"/>
	<line x1="1856.87" y1="884.96" x2="1856.87" y2="723.22" style="stroke:#FF4500;stroke-width:6.48"/>
	<line x1="1840.41" y1="723.22" x2="1873.45" y2="723.22" stroke-linecap="round" style="stroke:#FF4500;stroke-width:6.48"/>
	<line x1="1840.41" y1="884.96" x2="1873.45" y2="884.96" stroke-linecap="round" style="stroke:#FF4500;stroke-width:6.48"/>
	<line x1="356.40" y1="2523.59" x2="356.40" y2="444.40" style="stroke:#000000;stroke-width:4.32"/>
	<line x1="356.40" y1="2476.07" x2="326.45" y2="2476.07" style="stroke:#000000;stroke-width:4.32"/>
	<text x="288.92" y="2476.07" style="font-family:'Helvetica';font-size:74.99px;fill:#000000" transform="rotate(-90 288.92,2476.07)" text-anchor="middle">0.125</text>
	<line x1="356.40" y1="2194.28" x2="326.45" y2="2194.28" style="stroke:#000000;stroke-width:4.32"/>
	<text x="288.92" y="2194.28" style="font-family:'Helvetica';font-size:74.99px;fill:#000000" transform="rotate(-90 288.92,2194.28)" text-anchor="middle">0.25</text>
	<line x1="356.40" y1="1908.53" x2="326.45" y2="1908.53" style="stroke:#000000;stroke-width:4.32"/>
	<text x="288.92" y="1908.53" style="font-family:'Helvetica';font-size:74.99px;fill:#000000" transform="rotate(-90 288.92,1908.53)" text-anchor="middle">0.5</text>
	<line x1="356.40" y1="1626.87" x2="326.45" y2="1626.87" style="stroke:#000000;stroke-width:4.32"/>
	<text x="288.92" y="1626.87" style="font-family:'Helvetica';font-size:74.99px;fill:#000000" transform="rotate(-90 288.92,1626.87)" text-anchor="middle">1</text>
	<line x1="356.40" y1="1345.20" x2="326.45" y2="1345.20" style="stroke:#000000;stroke-width:4.32"/>
	<text x="288.92" y="1345.20" style="font-family:'Helvetica';font-size:74.99px;fill:#000000" transform="rotate(-90 288.92,1345.20)" text-anchor="middle">2</text>
	<line x1="356.40" y1="1059.46" x2="326.45" y2="1059.46" style="stroke:#000000;stroke-width:4.32"/>
	<text x="288.92" y="1059.46" style="font-family:'Helvetica';font-size:74.99px;fill:#000000" transform="rotate(-90 288.92,1059.46)" text-anchor="middle">4</text>
	<line x1="356.40" y1="777.67" x2="326.45" y2="777.67" style="stroke:#000000;stroke-width:4.32"/>
	<text x="288.92" y="777.67" style="font-family:'Helvetica';font-size:74.99px;fill:#000000" transform="rotate(-90 288.92,777.67)" text-anchor="middle">8</text>
	<line x1="356.40" y1="491.92" x2="326.45" y2="491.92" style="stroke:#000000;stroke-width:4.32"/>
	<text x="288.92" y="491.92" style="font-family:'Helvetica';font-size:74.99px;fill:#000000" transform="rotate(-90 288.92,491.92)" text-anchor="middle">16</text>
	<text x="206.38" y="1483.93" style="font-family:'Helvetica';font-size:74.99px;fill:#000000" transform="rotate(-90 206.38,1483.93)" text-anchor="middle"> </text>
	<line x1="356.40" y1="2523.59" x2="1904.39" y2="2523.59" style="stroke:#000000;stroke-width:4.32"/>
	<line x1="403.92" y1="2523.59" x2="403.92" y2="2553.54" style="stroke:#000000;stroke-width:4.32"/>
	<text x="403.92" y="2620.95" style="font-family:'Helvetica';font-size:74.99px;fill:#000000" text-anchor="middle">Excellent</text>
	<line x1="767.13" y1="2523.59" x2="767.13" y2="2553.54" style="stroke:#000000;stroke-width:4.32"/>
	<text x="767.13" y="2620.95" style="font-family:'Helvetica';font-size:74.99px;fill:#000000" text-anchor="middle">Very Good</text>
	<line x1="1130.33" y1="2523.59" x2="1130.33" y2="2553.54" style="stroke:#000000;stroke-width:4.32"/>
	<text x="1130.33" y="2620.95" style="font-family:'Helvetica';font-size:74.99px;fill:#000000" text-anchor="middle">Good</text>
	<line x1="1493.66" y1="2523.59" x2="1493.66" y2="2553.54" style="stroke:#000000;stroke-width:4.32"/>
	<text x="1493.66" y="2620.95" style="font-family:'Helvetica';font-size:74.99px;fill:#000000" text-anchor="middle">Fair</text>
	<line x1="1856.87" y1="2523.59" x2="1856.87" y2="2553.54" style="stroke:#000000;stroke-width:4.32"/>
	<text x="1856.87" y="2620.95" style="font-family:'Helvetica';font-size:74.99px;fill:#000000" text-anchor="middle">Poor</text>
	<text x="1130.33" y="2703.49" style="font-family:'Helvetica';font-size:74.99px;fill:#000000" text-anchor="middle">Self-Reported Health</text>
	<text x="1130.33" y="399.98" style="font-family:'Helvetica';font-size:104.94px;fill:#000000" text-anchor="middle"> </text>
	<rect x="1980.00" y="237.98" width="1916.52" height="2578.66" style="fill:#FFFFFF"/>
	<rect x="1982.16" y="240.14" width="1912.20" height="2574.34" style="fill:none;stroke:#FFFFFF;stroke-width:4.32"/>
	<rect x="2210.35" y="446.56" width="1608.39" height="1994.92" style="fill:none;stroke:#000000;stroke-width:4.32"/>
	<line x1="2208.20" y1="1581.20" x2="3820.91" y2="1581.20" style="stroke:#00FF00;stroke-width:6.48"/>
	<circle cx="2255.72" cy="1581.20" r="19.70" style="fill:#006000"/>
	<circle cx="2255.72" cy="1581.20" r="16.46" style="fill:none;stroke:#006000;stroke-width:6.48"/>
	<circle cx="2635.13" cy="1531.83" r="19.70" style="fill:#006000"/>
	<circle cx="2635.13" cy="1531.83" r="16.46" style="fill:none;stroke:#006000;stroke-width:6.48"/>
	<circle cx="3014.55" cy="1421.68" r="19.70" style="fill:#006000"/>
	<circle cx="3014.55" cy="1421.68" r="16.46" style="fill:none;stroke:#006000;stroke-width:6.48"/>
	<circle cx="3393.97" cy="1353.62" r="19.70" style="fill:#006000"/>
	<circle cx="3393.97" cy="1353.62" r="16.46" style="fill:none;stroke:#006000;stroke-width:6.48"/>
	<circle cx="3773.39" cy="1115.76" r="19.70" style="fill:#006000"/>
	<circle cx="3773.39" cy="1115.76" r="16.46" style="fill:none;stroke:#006000;stroke-width:6.48"/>
	<line x1="2635.13" y1="1603.48" x2="2635.13" y2="1460.05" style="stroke:#FF4500;stroke-width:6.48"/>
	<line x1="2618.67" y1="1460.05" x2="2651.72" y2="1460.05" stroke-linecap="round" style="stroke:#FF4500;stroke-width:6.48"/>
	<line x1="2618.67" y1="1603.48" x2="2651.72" y2="1603.48" stroke-linecap="round" style="stroke:#FF4500;stroke-width:6.48"/>
	<line x1="3014.55" y1="1488.64" x2="3014.55" y2="1354.49" style="stroke:#FF4500;stroke-width:6.48"/>
	<line x1="2998.09" y1="1354.49" x2="3031.13" y2="1354.49" stroke-linecap="round" style="stroke:#FF4500;stroke-width:6.48"/>
	<line x1="2998.09" y1="1488.64" x2="3031.13" y2="1488.64" stroke-linecap="round" style="stroke:#FF4500;stroke-width:6.48"/>
	<line x1="3393.97" y1="1424.04" x2="3393.97" y2="1283.08" style="stroke:#FF4500;stroke-width:6.48"/>
	<line x1="3377.51" y1="1283.08" x2="3410.55" y2="1283.08" stroke-linecap="round" style="stroke:#FF4500;stroke-width:6.48"/>
	<line x1="3377.51" y1="1424.04" x2="3410.55" y2="1424.04" stroke-linecap="round" style="stroke:#FF4500;stroke-width:6.48"/>
	<line x1="3773.39" y1="1197.94" x2="3773.39" y2="1033.47" style="stroke:#FF4500;stroke-width:6.48"/>
	<line x1="3756.93" y1="1033.47" x2="3789.97" y2="1033.47" stroke-linecap="round" style="stroke:#FF4500;stroke-width:6.48"/>
	<line x1="3756.93" y1="1197.94" x2="3789.97" y2="1197.94" stroke-linecap="round" style="stroke:#FF4500;stroke-width:6.48"/>
	<line x1="2208.20" y1="2443.64" x2="2208.20" y2="444.40" style="stroke:#000000;stroke-width:4.32"/>
	<line x1="2208.20" y1="2396.12" x2="2178.25" y2="2396.12" style="stroke:#000000;stroke-width:4.32"/>
	<text x="2140.59" y="2396.12" style="font-family:'Helvetica';font-size:74.99px;fill:#000000" transform="rotate(-90 2140.59,2396.12)" text-anchor="middle">0.125</text>
	<line x1="2208.20" y1="2125.72" x2="2178.25" y2="2125.72" style="stroke:#000000;stroke-width:4.32"/>
	<text x="2140.59" y="2125.72" style="font-family:'Helvetica';font-size:74.99px;fill:#000000" transform="rotate(-90 2140.59,2125.72)" text-anchor="middle">0.25</text>
	<line x1="2208.20" y1="1851.48" x2="2178.25" y2="1851.48" style="stroke:#000000;stroke-width:4.32"/>
	<text x="2140.59" y="1851.48" style="font-family:'Helvetica';font-size:74.99px;fill:#000000" transform="rotate(-90 2140.59,1851.48)" text-anchor="middle">0.5</text>
	<line x1="2208.20" y1="1581.20" x2="2178.25" y2="1581.20" style="stroke:#000000;stroke-width:4.32"/>
	<text x="2140.59" y="1581.20" style="font-family:'Helvetica';font-size:74.99px;fill:#000000" transform="rotate(-90 2140.59,1581.20)" text-anchor="middle">1</text>
	<line x1="2208.20" y1="1310.80" x2="2178.25" y2="1310.80" style="stroke:#000000;stroke-width:4.32"/>
	<text x="2140.59" y="1310.80" style="font-family:'Helvetica';font-size:74.99px;fill:#000000" transform="rotate(-90 2140.59,1310.80)" text-anchor="middle">2</text>
	<line x1="2208.20" y1="1036.56" x2="2178.25" y2="1036.56" style="stroke:#000000;stroke-width:4.32"/>
	<text x="2140.59" y="1036.56" style="font-family:'Helvetica';font-size:74.99px;fill:#000000" transform="rotate(-90 2140.59,1036.56)" text-anchor="middle">4</text>
	<line x1="2208.20" y1="766.16" x2="2178.25" y2="766.16" style="stroke:#000000;stroke-width:4.32"/>
	<text x="2140.59" y="766.16" style="font-family:'Helvetica';font-size:74.99px;fill:#000000" transform="rotate(-90 2140.59,766.16)" text-anchor="middle">8</text>
	<line x1="2208.20" y1="491.92" x2="2178.25" y2="491.92" style="stroke:#000000;stroke-width:4.32"/>
	<text x="2140.59" y="491.92" style="font-family:'Helvetica';font-size:74.99px;fill:#000000" transform="rotate(-90 2140.59,491.92)" text-anchor="middle">16</text>
	<text x="2123.02" y="1444.08" style="font-family:'Helvetica';font-size:74.99px;fill:#000000" transform="rotate(-90 2123.02,1444.08)" text-anchor="middle"> </text>
	<line x1="2208.20" y1="2443.64" x2="3820.91" y2="2443.64" style="stroke:#000000;stroke-width:4.32"/>
	<line x1="2255.72" y1="2443.64" x2="2255.72" y2="2473.59" style="stroke:#000000;stroke-width:4.32"/>
	<text x="2255.72" y="2541.12" style="font-family:'Helvetica';font-size:74.99px;fill:#000000" text-anchor="middle">Excellent</text>
	<line x1="2635.13" y1="2443.64" x2="2635.13" y2="2473.59" style="stroke:#000000;stroke-width:4.32"/>
	<text x="2635.13" y="2541.12" style="font-family:'Helvetica';font-size:74.99px;fill:#000000" text-anchor="middle">Very Good</text>
	<line x1="3014.55" y1="2443.64" x2="3014.55" y2="2473.59" style="stroke:#000000;stroke-width:4.32"/>
	<text x="3014.55" y="2541.12" style="font-family:'Helvetica';font-size:74.99px;fill:#000000" text-anchor="middle">Good</text>
	<line x1="3393.97" y1="2443.64" x2="3393.97" y2="2473.59" style="stroke:#000000;stroke-width:4.32"/>
	<text x="3393.97" y="2541.12" style="font-family:'Helvetica';font-size:74.99px;fill:#000000" text-anchor="middle">Fair</text>
	<line x1="3773.39" y1="2443.64" x2="3773.39" y2="2473.59" style="stroke:#000000;stroke-width:4.32"/>
	<text x="3773.39" y="2541.12" style="font-family:'Helvetica';font-size:74.99px;fill:#000000" text-anchor="middle">Poor</text>
	<text x="3014.55" y="2623.54" style="font-family:'Helvetica';font-size:74.99px;fill:#000000" text-anchor="middle">Self-Reported Health</text>
	<text x="2221.19" y="2711.78" style="font-family:'Helvetica';font-size:53.96px;fill:#000000">Note:Adjusted for age, sex, ethnicity/race and times of receiving health care over past year</text>
	<text x="3014.55" y="399.98" style="font-family:'Helvetica';font-size:104.94px;fill:#000000" text-anchor="middle"> </text>
	<text x="1980.00" y="178.60" style="font-family:'Helvetica';font-size:139.96px;fill:#000000" text-anchor="middle">Figure:Unadjusted vs Adjusted Hazard Ratio (95%CI)</text>
</svg>
